<?xml version="1.0" encoding="utf-8"?>
<!-- Generator: Adobe Illustrator 24.1.1, SVG Export Plug-In . SVG Version: 6.00 Build 0)  -->
<svg version="1.1" id="Capa_1" xmlns="http://www.w3.org/2000/svg" xmlns:xlink="http://www.w3.org/1999/xlink" x="0px" y="0px"
	 viewBox="0 0 447 490" style="enable-background:new 0 0 447 490;" xml:space="preserve">
<style type="text/css">
	.st0{fill:#212529;}
</style>
<path class="st0" d="M364.4,410.6l32.7-32.7H43.4l31.1,32.7H6v11.2H441v-11.2H364.4z"/>
<path class="st0" d="M56.4,436.7h279.1v11.2H56.4V436.7z"/>
<path class="st0" d="M348.6,436.7h32.7v11.2h-32.7V436.7z"/>
<path class="st0" d="M115.2,466.6h195.1v11.2H115.2V466.6z"/>
<path class="st0" d="M220.9,120.7c0,0,36.2-24-1.9-59.2C219,61.5,177,95,220.9,120.7z"/>
<path class="st0" d="M213,9.2h11.2v31.5H213V9.2z"/>
<path class="st0" d="M163.4,30.9l22.2,22.3l-7.9,7.9l-22.2-22.4L163.4,30.9z"/>
<path class="st0" d="M146.6,80.4l29.5,11l-3.9,10.5l-29.5-11L146.6,80.4z"/>
<path class="st0" d="M297.7,90.9l-29.5,11l-3.9-10.5l29.5-11L297.7,90.9z"/>
<path class="st0" d="M268.2,30.9l8,7.9L254,61.1l-7.9-7.9L268.2,30.9z"/>
<path class="st0" d="M293.8,166.7c-4.4,0-7.4,1.8-9.6,3.8c-2.2-2-5.2-3.8-9.6-3.8c-0.6,0-1.2,0-1.9,0.1c-7.2,0.7-12.4,7.1-13,15.7
	c-0.5,6.8,1.8,16.6,15.3,24.9c4.7,2.9,7.2,4,9.1,4c1.9,0,4.4-1.1,9.1-4c13.5-8.2,15.8-18.1,15.3-24.9c-0.6-8.6-5.8-14.9-13-15.7
	C295,166.7,294.4,166.7,293.8,166.7L293.8,166.7z"/>
<path class="st0" d="M147.1,207.3c4.7,2.9,7.2,4,9.1,4c1.9,0,4.4-1.1,9.1-4c13.5-8.2,15.8-18.1,15.3-24.9c-0.6-8.6-5.8-14.9-13-15.7
	c-0.6-0.1-1.3-0.1-1.9-0.1c-4.4,0-7.4,1.8-9.6,3.8c-2.2-2-5.2-3.8-9.6-3.8c-0.6,0-1.2,0-1.9,0.1c-7.2,0.7-12.4,7.1-13,15.7
	C131.4,189.3,133.7,199.1,147.1,207.3L147.1,207.3z"/>
<path class="st0" d="M344,342.2h-26.8v2.8c0,9.8-8.5,17.7-19,17.7s-19-8-19-17.7v-2.8h-4.6v7.7c0,10.7-9.4,19.4-20.9,19.4
	c-11.5,0-20.9-8.7-20.9-19.4v-7.7H90.6V373H344V342.2z"/>
<path class="st0" d="M244.1,336.6v13.3c0,4.5,4.3,8.2,9.7,8.2c5.3,0,9.7-3.7,9.7-8.2v-13.3c0-3.1,2.5-5.6,5.6-5.6h15.8
	c3.1,0,5.6,2.5,5.6,5.6v8.4c0,3.6,3.5,6.5,7.8,6.5c4.3,0,7.8-2.9,7.8-6.5v-8.4c0-3.1,2.5-5.6,5.6-5.6H344v-19.6H90.6V331h147.9
	C241.6,331,244.1,333.5,244.1,336.6L244.1,336.6z"/>
<path class="st0" d="M344,251.6c-4.5,5.5-10.3,11.5-20.7,11.5c-11.6,0-17.4-7.4-22.1-13.3c-4.6-5.8-7.5-9.1-13.4-9.1
	c-5.9,0-8.8,3.3-13.3,9.1c-4.7,5.9-10.5,13.3-22.1,13.3c-11.6,0-17.4-7.4-22.1-13.3c-4.6-5.8-7.5-9.1-13.3-9.1s-8.8,3.3-13.3,9.1
	c-4.7,5.9-10.6,13.3-22.1,13.3c-11.6,0-17.4-7.4-22.1-13.3c-4.6-5.8-7.5-9.1-13.3-9.1s-8.8,3.3-13.3,9.1
	c-4.7,5.9-10.5,13.3-22.1,13.3c-9.9,0-15.6-5.4-19.9-10.6v47.7H344L344,251.6L344,251.6z M121.8,280c0,3.1-2.5,5.6-5.6,5.6
	s-5.6-2.5-5.6-5.6v-9.1c0-3.1,2.5-5.6,5.6-5.6s5.6,2.5,5.6,5.6V280z M161.9,281.6c0,3.1-2.5,5.6-5.6,5.6c-3.1,0-5.6-2.5-5.6-5.6
	v-9.1c0-3.1,2.5-5.6,5.6-5.6c3.1,0,5.6,2.5,5.6,5.6V281.6z M197.4,281.6c0,3.1-2.5,5.6-5.6,5.6c-3.1,0-5.6-2.5-5.6-5.6v-9.1
	c0-3.1,2.5-5.6,5.6-5.6c3.1,0,5.6,2.5,5.6,5.6V281.6z M227.7,266.7c0,3.1-2.5,5.6-5.6,5.6c-3.1,0-5.6-2.5-5.6-5.6v-9.1
	c0-3.1,2.5-5.6,5.6-5.6c3.1,0,5.6,2.5,5.6,5.6V266.7z M263.2,281.6c0,3.1-2.5,5.6-5.6,5.6s-5.6-2.5-5.6-5.6v-9.1
	c0-3.1,2.5-5.6,5.6-5.6s5.6,2.5,5.6,5.6V281.6z M289.8,266.7c0,3.1-2.5,5.6-5.6,5.6s-5.6-2.5-5.6-5.6v-9.1c0-3.1,2.5-5.6,5.6-5.6
	s5.6,2.5,5.6,5.6V266.7z M336.4,279c0,3.1-2.5,5.6-5.6,5.6s-5.6-2.5-5.6-5.6v-9.1c0-3.1,2.5-5.6,5.6-5.6s5.6,2.5,5.6,5.6V279z"/>
<path class="st0" d="M110.5,251.9c5.9,0,8.8-3.3,13.3-9.1c4.7-5.9,10.5-13.3,22.1-13.3c11.6,0,17.4,7.4,22.1,13.3
	c4.6,5.8,7.5,9.1,13.3,9.1s8.8-3.3,13.3-9.1c4.7-5.9,10.5-13.3,22.1-13.3c11.6,0,17.4,7.4,22.1,13.3c4.6,5.8,7.5,9.1,13.3,9.1
	c5.9,0,8.8-3.3,13.4-9.1c4.7-5.9,10.5-13.3,22.1-13.3s17.4,7.4,22.1,13.3c4.6,5.8,7.5,9.1,13.4,9.1s8.8-3.3,13.4-9.1
	c2-2.5,4.2-5.2,6.9-7.6c-2-13.4-13.1-23.7-26.6-23.7h-84.4v-89.4h-25.1v89.4h-89.9c-13.7,0-24.9,10.6-26.7,24.3
	c2.4,2.2,4.4,4.7,6.2,7C101.8,248.6,104.7,251.9,110.5,251.9L110.5,251.9z"/>
</svg>
