<?xml version="1.0" encoding="utf-8"?>
<!-- Generator: Adobe Illustrator 24.1.1, SVG Export Plug-In . SVG Version: 6.00 Build 0)  -->
<svg version="1.1" id="Capa_1" xmlns="http://www.w3.org/2000/svg" xmlns:xlink="http://www.w3.org/1999/xlink" x="0px" y="0px"
	 viewBox="0 0 447 490" style="enable-background:new 0 0 447 490;" xml:space="preserve">
<style type="text/css">
	.st0{fill:#FFFFFF;}
</style>
<path class="st0" d="M364.43,410.57l32.66-32.66H43.36l31.07,32.66H6.03v11.2h434.94v-11.2H364.43z"/>
<path class="st0" d="M56.43,436.71H335.5v11.2H56.43V436.71z"/>
<path class="st0" d="M348.56,436.71h32.66v11.2h-32.66L348.56,436.71z"/>
<path class="st0" d="M115.23,466.57H310.3v11.2H115.23L115.23,466.57z"/>
<path class="st0" d="M220.86,120.74c0,0,36.19-24.03-1.87-59.2C218.99,61.54,177.02,95.04,220.86,120.74z"/>
<path class="st0" d="M213.04,9.23h11.2v31.5h-11.2V9.23z"/>
<path class="st0" d="M163.41,30.86l22.18,22.35l-7.95,7.89l-22.18-22.36L163.41,30.86z"/>
<path class="st0" d="M146.63,80.38l29.5,11.04l-3.93,10.49l-29.5-11.04L146.63,80.38z"/>
<path class="st0" d="M297.73,90.89l-29.5,11.04l-3.93-10.49l29.5-11.04L297.73,90.89z"/>
<path class="st0" d="M268.23,30.85l7.95,7.89L253.99,61.1l-7.95-7.89L268.23,30.85z"/>
<path class="st0" d="M293.77,166.67c-4.42,0-7.39,1.77-9.61,3.77c-2.22-2-5.19-3.77-9.61-3.77c-0.59,0-1.23,0.04-1.86,0.1
	c-7.18,0.74-12.4,7.05-12.98,15.69c-0.45,6.8,1.83,16.63,15.3,24.86c4.7,2.87,7.2,3.96,9.14,4c1.94-0.04,4.44-1.13,9.14-4
	c13.47-8.23,15.76-18.07,15.3-24.86c-0.58-8.64-5.8-14.95-12.98-15.69C294.99,166.71,294.36,166.67,293.77,166.67L293.77,166.67z"/>
<path class="st0" d="M147.15,207.32c4.7,2.87,7.2,3.96,9.14,4c1.94-0.04,4.43-1.13,9.14-4c13.47-8.23,15.76-18.07,15.3-24.86
	c-0.58-8.64-5.8-14.94-12.98-15.69c-0.63-0.07-1.26-0.1-1.86-0.1c-4.41,0-7.39,1.77-9.61,3.77c-2.22-2-5.19-3.77-9.61-3.77
	c-0.6,0-1.23,0.04-1.86,0.1c-7.18,0.74-12.4,7.05-12.98,15.69C131.39,189.25,133.67,199.09,147.15,207.32L147.15,207.32z"/>
<path class="st0" d="M344.01,342.19h-26.75v2.8c0,9.78-8.52,17.73-19.01,17.73s-19.01-7.95-19.01-17.73v-2.8h-4.61v7.66
	c0,10.7-9.36,19.41-20.87,19.41c-11.51,0-20.86-8.71-20.86-19.41v-7.66H90.61v30.8h253.4L344.01,342.19z"/>
<path class="st0" d="M244.1,336.6v13.25c0,4.53,4.34,8.21,9.66,8.21c5.33,0,9.66-3.68,9.66-8.21V336.6c0-3.1,2.5-5.6,5.6-5.6h15.81
	c3.1,0,5.6,2.5,5.6,5.6v8.41c0,3.6,3.5,6.53,7.81,6.53c4.3,0,7.81-2.93,7.81-6.53v-8.41c0-3.1,2.5-5.6,5.6-5.6h32.35v-19.6H90.62
	V331H238.5C241.59,331,244.1,333.5,244.1,336.6L244.1,336.6z"/>
<path class="st0" d="M344.01,251.6c-4.48,5.52-10.25,11.5-20.68,11.5c-11.58,0-17.44-7.39-22.14-13.32
	c-4.59-5.8-7.48-9.08-13.36-9.08c-5.88,0-8.75,3.28-13.34,9.07c-4.7,5.94-10.55,13.33-22.13,13.33c-11.56,0-17.41-7.39-22.11-13.32
	c-4.59-5.8-7.46-9.08-13.33-9.08s-8.75,3.28-13.34,9.07c-4.7,5.94-10.55,13.33-22.13,13.33c-11.57,0-17.42-7.39-22.12-13.33
	c-4.59-5.8-7.46-9.07-13.33-9.07s-8.75,3.28-13.33,9.08c-4.7,5.94-10.54,13.32-22.11,13.32c-9.87,0-15.56-5.37-19.94-10.63v47.72
	h253.4L344.01,251.6L344.01,251.6z M121.76,280.02c0,3.1-2.51,5.6-5.6,5.6c-3.09,0-5.6-2.5-5.6-5.6v-9.1c0-3.1,2.51-5.6,5.6-5.6
	c3.09,0,5.6,2.5,5.6,5.6V280.02z M161.89,281.64c0,3.1-2.51,5.6-5.6,5.6c-3.09,0-5.6-2.5-5.6-5.6v-9.1c0-3.1,2.51-5.6,5.6-5.6
	c3.09,0,5.6,2.5,5.6,5.6V281.64z M197.36,281.64c0,3.1-2.51,5.6-5.6,5.6c-3.09,0-5.6-2.5-5.6-5.6v-9.1c0-3.1,2.51-5.6,5.6-5.6
	c3.09,0,5.6,2.5,5.6,5.6V281.64z M227.7,266.71c0,3.1-2.5,5.6-5.6,5.6c-3.09,0-5.6-2.5-5.6-5.6v-9.1c0-3.1,2.51-5.6,5.6-5.6
	c3.1,0,5.6,2.5,5.6,5.6V266.71z M263.16,281.64c0,3.1-2.5,5.6-5.6,5.6s-5.6-2.5-5.6-5.6v-9.1c0-3.1,2.5-5.6,5.6-5.6s5.6,2.5,5.6,5.6
	V281.64z M289.76,266.71c0,3.1-2.5,5.6-5.6,5.6s-5.6-2.5-5.6-5.6l0-9.1c0-3.1,2.5-5.6,5.6-5.6s5.6,2.5,5.6,5.6L289.76,266.71z
	 M336.43,278.97c0,3.1-2.5,5.6-5.6,5.6s-5.6-2.5-5.6-5.6v-9.1c0-3.1,2.5-5.6,5.6-5.6s5.6,2.5,5.6,5.6V278.97z"/>
<path class="st0" d="M110.54,251.9c5.86,0,8.75-3.28,13.33-9.08c4.7-5.94,10.54-13.32,22.12-13.32c11.57,0,17.42,7.39,22.12,13.32
	c4.59,5.8,7.46,9.08,13.33,9.08s8.75-3.28,13.34-9.08c4.7-5.94,10.54-13.32,22.12-13.32c11.57,0,17.41,7.39,22.11,13.33
	c4.58,5.79,7.46,9.07,13.33,9.07c5.88,0,8.76-3.28,13.35-9.08c4.7-5.94,10.55-13.32,22.13-13.32s17.43,7.39,22.14,13.32
	c4.59,5.8,7.48,9.08,13.36,9.08s8.77-3.28,13.36-9.08c1.98-2.49,4.18-5.21,6.9-7.56c-2-13.42-13.09-23.73-26.59-23.73h-84.4v-89.36
	h-25.12v89.36H117.6c-13.69,0-24.87,10.59-26.65,24.28c2.43,2.22,4.43,4.72,6.24,7.01C101.79,248.62,104.67,251.9,110.54,251.9
	L110.54,251.9z"/>
</svg>
